<mxfile host="app.diagrams.net" modified="2023-04-04T13:03:26.746Z" agent="Mozilla/5.0 (Windows NT 10.0; Win64; x64) AppleWebKit/537.36 (KHTML, like Gecko) Chrome/111.0.0.0 Safari/537.36" version="21.1.4" etag="a1SnQ0uG0A4CjS1dFsqi" type="github">
  <diagram name="Page-1" id="Zb5eN5a9i-Niwa0mqP-r">
    <mxGraphModel>
      <root>
        <mxCell id="0" />
        <mxCell id="1" parent="0" />
      </root>
    </mxGraphModel>
  </diagram>
</mxfile>
